<svg xmlns="http://www.w3.org/2000/svg" viewBox="0 0 64 64" fill="none">
  <defs>
    <linearGradient id="sky" x1="0" y1="0" x2="0" y2="1">
      <stop offset="0%" stop-color="#0e3a5c"/>
      <stop offset="100%" stop-color="#15577a"/>
    </linearGradient>
    <linearGradient id="cloud" x1="0" y1="0" x2="0" y2="1">
      <stop offset="0%" stop-color="#f0f6fc"/>
      <stop offset="100%" stop-color="#c8d6e2"/>
    </linearGradient>
    <linearGradient id="palm" x1="0" y1="0" x2="0" y2="1">
      <stop offset="0%" stop-color="#4ade80"/>
      <stop offset="100%" stop-color="#16a34a"/>
    </linearGradient>
  </defs>
  <rect width="64" height="64" rx="14" fill="url(#sky)"/>
  <!-- Palm fronds -->
  <g transform="translate(14 18)" fill="url(#palm)">
    <path d="M8 30 C8 20 4 12 0 8 C6 10 10 16 11 22 Z"/>
    <path d="M8 30 C8 20 14 12 22 10 C18 16 14 22 11 26 Z"/>
    <path d="M8 30 C8 18 14 8 24 4 C22 14 16 22 11 28 Z" opacity="0.85"/>
    <rect x="7" y="28" width="2.5" height="14" rx="1" fill="#6b4423"/>
  </g>
  <!-- Cloud -->
  <g transform="translate(22 26)">
    <ellipse cx="14" cy="14" rx="14" ry="9" fill="url(#cloud)"/>
    <circle cx="6" cy="10" r="7" fill="url(#cloud)"/>
    <circle cx="20" cy="8" r="9" fill="url(#cloud)"/>
  </g>
  <!-- Raindrops -->
  <g fill="#7dd3fc" opacity="0.9">
    <path d="M26 50 Q26 53 28 53 Q30 53 30 50 L28 46 Z"/>
    <path d="M34 52 Q34 55 36 55 Q38 55 38 52 L36 48 Z"/>
    <path d="M42 50 Q42 53 44 53 Q46 53 46 50 L44 46 Z"/>
  </g>
</svg>
